<?xml version="1.0" encoding="UTF-8" standalone="no"?>
<!-- Created with Inkscape (http://www.inkscape.org/) -->

<svg
   width="166.99139mm"
   height="60.691299mm"
   viewBox="0 0 166.9914 60.691299"
   version="1.1"
   id="svg1"
   xml:space="preserve"
   inkscape:version="1.3 (0e150ed6c4, 2023-07-21)"
   sodipodi:docname="aquinus logo proyecto.svg"
   xmlns:inkscape="http://www.inkscape.org/namespaces/inkscape"
   xmlns:sodipodi="http://sodipodi.sourceforge.net/DTD/sodipodi-0.dtd"
   xmlns="http://www.w3.org/2000/svg"
   xmlns:svg="http://www.w3.org/2000/svg"><sodipodi:namedview
     id="namedview1"
     pagecolor="#ffffff"
     bordercolor="#000000"
     borderopacity="0.25"
     inkscape:showpageshadow="2"
     inkscape:pageopacity="0.0"
     inkscape:pagecheckerboard="0"
     inkscape:deskcolor="#d1d1d1"
     inkscape:document-units="mm"
     showguides="true"
     inkscape:zoom="2.768771"
     inkscape:cx="170.29216"
     inkscape:cy="219.05025"
     inkscape:window-width="1920"
     inkscape:window-height="991"
     inkscape:window-x="-9"
     inkscape:window-y="-9"
     inkscape:window-maximized="1"
     inkscape:current-layer="layer1"
     showgrid="false" /><defs
     id="defs1" /><g
     inkscape:label="Layer 1"
     inkscape:groupmode="layer"
     id="layer1"
     transform="translate(-21.857075,-46.644592)"><text
       xml:space="preserve"
       style="font-size:67.9627px;line-height:0px;font-family:'Swis721 Blk BT';-inkscape-font-specification:'Swis721 Blk BT, Normal';text-align:center;letter-spacing:0.529167px;word-spacing:0.79375px;text-anchor:middle;fill:#ffffff;fill-opacity:1;stroke:#020305;stroke-width:0.1;stroke-linecap:round;stroke-linejoin:round;stroke-opacity:1;paint-order:markers fill stroke"
       x="139.70848"
       y="96.897682"
       id="text1"
       inkscape:export-filename="logo_aquinos_con_texto.svg"
       inkscape:export-xdpi="96"
       inkscape:export-ydpi="96"><tspan
         sodipodi:role="line"
         id="tspan1"
         style="font-style:normal;font-variant:normal;font-weight:normal;font-stretch:normal;font-size:22.5778px;font-family:'Amiri Quran';-inkscape-font-specification:'Amiri Quran, Normal';font-variant-ligatures:normal;font-variant-caps:normal;font-variant-numeric:normal;font-variant-east-asian:normal;letter-spacing:0.529167px;fill:#ffffff;fill-opacity:1;stroke:#020305;stroke-width:0.1;stroke-opacity:1"
         x="139.97307"
         y="96.897682">AQUINUS</tspan></text><rect
       style="fill:#ffffff;fill-opacity:1;stroke:#ffffff;stroke-width:0.617146;stroke-linecap:round;stroke-linejoin:round;stroke-opacity:1;paint-order:markers fill stroke"
       id="rect1"
       width="166.3703"
       height="0.57397127"
       x="22.169582"
       y="106.45335" /><path
       style="fill:#ffffff;fill-opacity:1"
       d="m 47.748289,104.48085 c -0.512707,-2.55307 -1.209264,-3.99302 -2.507825,-5.184254 -1.088787,-0.9988 -2.752193,-1.67673 -5.889701,-2.40038 -0.381768,-0.088 -0.219242,-0.21379 0.280666,-0.21714 0.270141,-0.002 0.764815,-0.0635 1.099275,-0.13704 0.334461,-0.0736 0.755459,-0.13589 0.935553,-0.13848 0.246533,-0.004 0.292768,-0.0271 0.187111,-0.09541 -0.23506,-0.151908 -0.890333,-0.105238 -1.991852,0.141864 l -1.049441,0.23542 -1.449735,-0.413576 c -0.797354,-0.227465 -1.659381,-0.496523 -1.915616,-0.597905 l -0.465881,-0.184331 0.465881,-0.06006 c 0.256235,-0.03303 0.968434,-0.102324 1.582665,-0.153984 0.614231,-0.05166 1.136971,-0.114116 1.161645,-0.13879 0.263491,-0.263491 -1.734314,-0.242376 -2.696624,0.0285 l -0.698861,0.19672 -0.952815,-0.372532 c -0.524049,-0.204893 -1.219959,-0.545668 -1.546467,-0.757278 -0.326508,-0.21161 -0.84625,-0.504655 -1.154983,-0.651211 -0.65924,-0.312942 -0.575852,-0.339644 0.248942,-0.07971 0.326181,0.102795 0.817131,0.214199 1.091001,0.247566 0.27387,0.03337 0.453537,0.08811 0.399262,0.121657 -0.05428,0.03354 0.05845,0.0629 0.250497,0.06523 0.843725,0.01025 3.030707,0.236312 3.447476,0.356358 0.251244,0.07237 0.962006,0.30102 1.579471,0.508116 0.617465,0.207096 1.564713,0.508784 2.104995,0.670418 1.448301,0.433281 3.196052,1.176542 4.009247,1.704992 1.070328,0.69555 2.28573,1.96588 2.682839,2.80407 0.437293,0.92301 0.684287,1.95179 0.803112,3.34511 0.05485,0.6432 0.112728,1.18275 0.128612,1.199 0.01588,0.0163 0.05531,-0.42579 0.08761,-0.98233 0.12185,-2.09949 0.410497,-3.21564 1.085213,-4.1963 0.399542,-0.58072 1.40778,-1.56793 2.037731,-1.99524 1.440285,-0.97698 2.336775,-1.208824 3.480999,-0.90024 0.333692,0.09 0.856276,0.21233 1.161297,0.27186 l 0.554584,0.10823 -0.882028,0.25964 c -3.331131,0.98055 -4.087756,1.33326 -5.137306,2.39485 -1.134142,1.14716 -1.647102,2.22841 -2.066109,4.35509 -0.111517,0.56601 -0.235978,1.06518 -0.276579,1.10927 -0.0406,0.0441 -0.123337,-0.1664 -0.183858,-0.46777 z m -2.994706,-6.299254 c -0.703398,-0.54314 -2.540641,-1.25852 -3.483923,-1.35656 -0.376509,-0.0391 -0.305289,-0.009 0.303042,0.12749 0.853918,0.19184 2.096518,0.68351 2.853437,1.12906 0.544037,0.32024 0.657545,0.35491 0.327444,0.10001 z m 8.045757,-0.76044 c 0.776963,-0.29002 0.69676,-0.36784 -0.106122,-0.10297 -0.486437,0.16048 -1.764984,0.82241 -1.764984,0.91377 0,0.0239 0.263124,-0.0897 0.58472,-0.25267 0.321597,-0.16292 0.90047,-0.41408 1.286386,-0.55813 z m 1.471547,-0.42109 c -0.03109,-0.0311 -0.111779,-0.0344 -0.179314,-0.007 -0.07463,0.0299 -0.05246,0.052 0.05652,0.0565 0.09862,0.004 0.153879,-0.0181 0.122791,-0.0491 z m 0.563281,-0.10153 c -0.09005,-0.0235 -0.237396,-0.0235 -0.327443,0 -0.09005,0.0235 -0.01637,0.0428 0.163721,0.0428 0.180094,0 0.253769,-0.0192 0.163722,-0.0428 z m -7.117165,3.549434 c -0.112607,-0.539104 -0.945948,-1.756434 -1.745219,-2.549384 -1.577472,-1.564998 -3.566368,-2.595729 -6.649241,-3.445924 -0.743446,-0.205027 -1.724804,-0.481867 -2.180795,-0.6152 -0.760284,-0.222309 -0.977637,-0.242871 -2.619549,-0.247815 -0.984761,-0.003 -1.958874,-0.04022 -2.164696,-0.0828 l -0.374221,-0.0774 0.374221,-0.02034 0.374222,-0.02034 -0.327444,-0.07854 c -0.180094,-0.0432 -0.895792,-0.107686 -1.59044,-0.143312 -0.709695,-0.0364 -1.36546,-0.11718 -1.496885,-0.184398 -0.324928,-0.166185 -2.649297,-2.474815 -2.491688,-2.474815 0.02002,0 0.196109,0.06673 0.39131,0.148291 0.195201,0.08156 1.073915,0.334963 1.952698,0.563118 1.871763,0.485957 4.193605,1.210876 5.559762,1.735854 0.532513,0.20463 0.988344,0.351917 1.012958,0.327303 0.02461,-0.02461 -0.263728,-0.224087 -0.640761,-0.443272 -0.940167,-0.54656 -3.431567,-2.247241 -4.299693,-2.93506 -0.39268,-0.311121 -1.171528,-0.883926 -1.730773,-1.2729 -4.828466,-3.358356 -4.888841,-3.407362 -5.516091,-4.477402 -0.69414,-1.184148 -1.133489,-2.563791 -1.40271,-4.404793 -0.02634,-0.180094 -0.09081,-0.558993 -0.143269,-0.841998 -0.257832,-1.390888 -0.172861,-5.389974 0.149099,-7.017221 l 0.120205,-0.607537 0.01253,0.841997 c 0.02488,1.671163 0.739442,3.709959 1.841622,5.254526 0.461321,0.646484 0.850915,0.965187 1.28959,1.054935 l 0.293326,0.06001 0.01064,1.49303 c 0.0097,1.355242 0.03767,1.59521 0.303533,2.60022 0.161091,0.608955 0.395614,1.366753 0.521162,1.683996 0.141891,0.358538 0.169357,0.4883 0.07258,0.342917 -0.08563,-0.128638 -0.770658,-0.844337 -1.522291,-1.59044 -0.751633,-0.746104 -1.626059,-1.685324 -1.943169,-2.087156 -0.31711,-0.401832 -0.576563,-0.692609 -0.576563,-0.646171 0,0.223269 1.072819,1.540537 2.512757,3.085306 0.875923,0.939693 1.856219,2.07639 2.178437,2.525994 1.041861,1.453757 2.051721,2.61285 2.652898,3.044935 l 0.280666,0.201724 -0.300786,-0.372601 c -0.165432,-0.20493 -0.54788,-0.678431 -0.849884,-1.052223 -1.013069,-1.253881 -1.680076,-2.506293 -2.274414,-4.270571 -0.479456,-1.423252 -0.893709,-3.017945 -0.8066,-3.105054 0.04798,-0.04798 1.166821,1.561937 1.876088,2.699527 0.344987,0.553323 0.819681,1.47952 1.054876,2.058217 0.629124,1.54796 0.988191,2.178646 1.801497,3.16426 0.900391,1.091147 1.653197,1.774254 2.867215,2.601749 1.811354,1.23465 3.709208,2.191291 6.081095,3.065266 1.875229,0.690969 2.76933,1.064851 3.60188,1.506179 2.249051,1.192199 3.308923,2.169809 4.21933,3.891819 l 0.338721,0.64068 0.395673,-0.73424 c 0.666487,-1.23677 1.433171,-2.05675 2.717812,-2.906746 1.17022,-0.774284 2.697855,-1.548084 4.022878,-2.037726 2.78204,-1.02806 3.494421,-1.325396 4.864877,-2.030518 2.263378,-1.164546 3.405318,-1.962828 4.77658,-3.339108 1.11029,-1.114352 1.186401,-1.214907 1.388093,-1.833886 0.352027,-1.080346 0.349974,-1.421406 -0.01889,-3.136665 -0.182275,-0.847605 -0.37726,-1.82172 -0.433301,-2.164699 -0.130235,-0.797055 -0.321473,-1.335495 -0.623553,-1.755638 -0.150848,-0.209805 -0.03715,-0.124883 0.305965,0.228538 0.636695,0.65581 1.184635,1.640497 1.38436,2.487789 0.179716,0.762412 0.186454,2.352979 0.01228,2.899088 -0.07236,0.226863 -0.221803,0.659471 -0.332107,0.961351 -0.470235,1.286938 0.09552,0.424771 0.928574,-1.415086 0.521138,-1.150963 1.265322,-2.397481 2.40551,-4.029259 0.432547,-0.619039 0.550669,-0.737723 0.575138,-0.577875 0.08039,0.525166 -0.791072,3.595788 -1.311624,4.621552 -0.354781,0.699106 -1.167189,1.799811 -2.317282,3.139607 -0.599935,0.698892 -0.494564,0.664583 0.400705,-0.130469 0.74426,-0.660947 1.27929,-1.308121 2.51828,-3.046118 0.495204,-0.694648 1.341885,-1.755071 1.881515,-2.356496 1.014082,-1.130207 1.931716,-2.286145 1.931716,-2.433371 0,-0.04631 -0.305224,0.264323 -0.678276,0.690292 -0.373052,0.425969 -0.973424,1.09111 -1.334162,1.47809 -0.360737,0.386981 -0.860837,0.93515 -1.111335,1.218155 -0.250497,0.283005 -0.425989,0.430355 -0.389982,0.327444 0.664456,-1.899069 0.767394,-2.846462 0.58273,-5.363144 -0.01288,-0.175604 0.05626,-0.242436 0.358254,-0.346275 0.519444,-0.178608 1.061151,-0.830252 1.669979,-2.008895 0.811416,-1.570835 1.078692,-2.468404 1.169107,-3.926104 l 0.06113,-0.98555 0.233888,1.824329 c 0.308095,2.40314 0.315657,4.534308 0.02141,6.034318 -0.11103,0.566009 -0.245482,1.358524 -0.298782,1.761143 -0.203989,1.540899 -0.940056,3.130487 -1.873646,4.046268 -0.626297,0.614349 -0.909377,0.820819 -3.321969,2.422946 -1.029108,0.683398 -2.509544,1.721333 -3.289858,2.306522 -1.577595,1.183103 -3.287754,2.277028 -4.769318,3.050754 -0.53927,0.281626 -0.962816,0.529723 -0.941213,0.551326 0.0216,0.0216 0.392582,-0.0917 0.824398,-0.251772 0.431817,-0.160078 1.12192,-0.393225 1.533564,-0.518106 0.411643,-0.12488 1.106291,-0.348583 1.543662,-0.497117 0.437372,-0.148533 1.405669,-0.423607 2.151773,-0.611276 0.746103,-0.187668 1.825536,-0.486578 2.398738,-0.664244 0.573202,-0.177666 1.068939,-0.323029 1.101638,-0.323029 0.0909,0 -1.423171,1.698181 -1.756693,1.970307 -0.806288,0.657864 -0.892088,0.681124 -2.433987,0.659863 -1.036553,-0.01429 -1.516779,0.0166 -1.796624,0.115588 -0.263066,0.09305 -0.903633,0.144342 -2.058217,0.164806 -1.31108,0.02324 -1.760377,0.0643 -2.062271,0.188485 -0.212294,0.08733 -0.864842,0.286848 -1.450108,0.443383 -3.712348,0.992904 -6.178105,2.209646 -7.84351,3.870428 -0.760133,0.75802 -1.59381,2.065854 -1.59381,2.500284 0,0.28 -0.154988,0.23265 -0.217461,-0.0664 z m 18.09846,-11.320198 c 0.11637,-0.148384 0.113061,-0.151693 -0.03532,-0.03532 -0.09005,0.07062 -0.163722,0.144294 -0.163722,0.163722 0,0.077 0.07683,0.02744 0.199045,-0.1284 z M 45.84338,96.456476 C 44.583099,95.423442 43.150454,94.728428 40.82426,94.021566 37.828817,93.111339 35.553475,92.051477 33.526945,90.622453 32.799644,90.10959 31.345333,88.715398 30.723546,87.934942 29.766848,86.734111 29.2234,85.224082 29.2234,83.76662 c 0,-1.276818 0.425893,-2.373576 1.368309,-3.523672 0.383904,-0.468503 0.62403,-0.547 0.275506,-0.09006 -0.317863,0.416739 -0.505239,0.977754 -0.612143,1.832784 -0.04884,0.390596 -0.177629,1.194323 -0.286207,1.78606 -0.215823,1.176204 -0.207646,2.073186 0.02388,2.619549 0.131024,0.309196 0.136402,0.267487 0.09652,-0.748442 -0.03736,-0.951709 0.153462,-2.828061 0.302799,-2.977398 0.0218,-0.0218 0.139857,0.186627 0.262355,0.463164 0.122499,0.276537 0.292682,0.560574 0.378185,0.631194 0.118457,0.09784 0.15546,0.287703 0.15546,0.797674 0,0.368102 0.04414,1.02602 0.09809,1.462041 0.126119,1.019255 0.596244,1.878222 1.585902,2.897606 1.684679,1.735281 3.652786,2.849228 7.74679,4.384674 3.154848,1.183217 4.663367,2.064498 5.636026,3.292582 0.16059,0.20276 0.272748,0.36866 0.24924,0.36866 -0.02351,0 -0.320839,-0.22795 -0.660734,-0.50656 z m 3.665769,0.0609 c 0.239992,-0.337039 1.269139,-1.184165 2.011635,-1.655846 0.738745,-0.469298 1.807265,-0.950499 3.430328,-1.544826 4.30002,-1.574563 5.700072,-2.305777 7.304168,-3.814795 1.735401,-1.632541 2.33203,-2.826713 2.33203,-4.667633 0,-0.818008 0.02618,-0.986714 0.17522,-1.129073 0.09637,-0.09205 0.240945,-0.296732 0.321275,-0.454846 0.08033,-0.158114 0.206561,-0.337695 0.280513,-0.39907 0.112884,-0.09369 0.14258,-0.04005 0.185072,0.334257 0.02784,0.245217 0.122904,0.908947 0.211258,1.474957 0.18145,1.162399 0.103156,2.096191 -0.229598,2.738348 -0.417304,0.805324 -2.083079,2.453651 -3.329401,3.294527 -1.001454,0.675668 -2.980532,1.727383 -4.022878,2.137825 -0.514554,0.202615 -1.870871,0.671473 -3.014038,1.041907 -2.380181,0.771278 -3.900159,1.473408 -5.074342,2.344012 -0.617271,0.457676 -0.737598,0.519836 -0.581242,0.300256 z m 7.101765,0.1096 c -0.156583,-0.15658 -1.788241,-0.432058 -2.546707,-0.429966 -0.548706,0.0015 -0.787695,-0.02702 -0.688971,-0.08227 0.08314,-0.04653 0.966392,-0.320487 1.962791,-0.608804 0.9964,-0.288317 2.358934,-0.707732 3.027854,-0.932034 1.262088,-0.423201 2.350991,-0.601378 3.715137,-0.607907 0.612768,-0.0029 1.692379,-0.158088 2.319181,-0.333299 l 0.233889,-0.06538 -0.207772,0.227486 c -0.582451,0.637717 -3.018494,1.778809 -3.38207,1.584229 -0.200713,-0.107418 -2.005979,-0.380664 -2.514955,-0.380664 -0.454126,0 -0.95863,0.09422 -0.95863,0.179032 0,0.06523 2.364188,0.289236 3.087326,0.292522 0.501375,0.0023 0.402779,0.07897 -0.467777,0.363851 -0.670917,0.219551 -3.186211,0.848594 -3.393198,0.848594 -0.07189,0 -0.155639,-0.0249 -0.186098,-0.0554 z m -8.811094,-0.69305 c -0.191514,-1.298034 -0.932458,-2.914518 -1.833706,-4.000513 -0.904153,-1.089496 -1.935646,-1.797164 -3.2911,-2.257897 l -0.490297,-0.166657 0.717826,-0.05429 c 1.284766,-0.09717 2.406815,-0.802616 2.557947,-1.608221 0.07732,-0.412148 -0.02229,-1.128373 -0.173549,-1.247851 -0.0618,-0.04881 -0.407058,-0.184473 -0.767246,-0.301465 -1.815848,-0.589799 -3.467328,-1.5401 -4.793474,-2.758277 -1.235538,-1.134947 -2.453918,-2.958053 -3.077336,-4.60473 -0.13228,-0.349402 -0.335494,-1.056232 -0.451586,-1.570733 l -0.211076,-0.935459 -1.159472,-0.350819 c -0.63771,-0.192949 -1.454172,-0.432514 -1.81436,-0.532365 -0.6286,-0.174259 -0.63912,-0.181775 -0.262069,-0.187222 0.651271,-0.0094 2.540885,0.266701 3.536505,0.516753 3.204422,0.804798 5.832918,2.155333 7.777682,3.996214 1.031744,0.976632 1.611976,1.760581 2.229718,3.012561 0.861878,1.746771 1.118838,2.946458 1.400963,6.540779 0.184411,2.349433 0.345992,2.528042 0.472818,0.522647 0.178976,-2.829993 0.338694,-4.171866 0.619513,-5.204843 1.127859,-4.14876 4.325844,-6.97355 9.734464,-8.598482 1.518479,-0.456203 3.673716,-0.801734 4.849106,-0.777416 l 0.514554,0.01064 -0.514554,0.06817 c -0.54976,0.07283 -3.368194,0.892182 -3.466275,1.007688 -0.03225,0.03798 -0.110495,0.363754 -0.173876,0.723942 -0.139533,0.792939 -0.723901,2.37518 -1.175415,3.182561 -0.884129,1.580971 -2.581258,3.437199 -4.014505,4.390848 -0.95923,0.63825 -2.302509,1.279118 -3.257364,1.554064 -0.63862,0.183887 -0.731613,0.239436 -0.818609,0.488994 -0.465669,1.335819 0.600818,2.49128 2.474626,2.681078 l 0.561332,0.05686 -0.766432,0.260611 c -1.272092,0.432552 -2.273719,1.221906 -3.224258,2.540947 -0.653272,0.90653 -1.300015,2.448325 -1.55014,3.695435 l -0.08444,0.420998 z m 14.822828,-2.231621 c 0.181007,-0.113488 1.530745,-0.330376 1.697197,-0.27272 0.06992,0.02422 -0.188617,0.09471 -0.574533,0.156646 -0.385916,0.06194 -0.827964,0.133186 -0.982331,0.158335 -0.199348,0.03248 -0.240007,0.02023 -0.140333,-0.04226 z m 2.245328,-0.294372 c 0.128638,-0.0412 0.339138,-0.07412 0.467776,-0.07316 0.210088,0.0016 0.205328,0.009 -0.04678,0.07316 -0.154366,0.03928 -0.364866,0.0722 -0.467777,0.07316 -0.146619,0.0014 -0.136496,-0.01447 0.04678,-0.07316 z M 32.731725,91.900426 c -1.508454,-0.68082 -2.345933,-0.956518 -4.069657,-1.339732 -1.032532,-0.22955 -1.766274,-0.450741 -2.21597,-0.668019 -0.769795,-0.371939 -1.56431,-1.101774 -2.130969,-1.957493 -0.385971,-0.582858 -0.84945,-1.617797 -0.76315,-1.704097 0.06404,-0.06404 1.487959,0.405725 1.975986,0.651896 0.604558,0.304952 2.249342,1.384562 3.508325,2.302809 1.83492,1.338311 2.396499,1.713922 3.648657,2.440399 1.632028,0.946869 1.639947,0.993292 0.04678,0.274237 z m 29.191831,0.354377 c 0.101496,-0.06821 0.598865,-0.343363 1.105265,-0.611453 0.991757,-0.525042 1.756272,-1.023242 4.208869,-2.742728 0.865971,-0.607122 1.981618,-1.332546 2.479215,-1.612053 0.879028,-0.493761 2.459563,-1.118875 2.691528,-1.064521 0.172874,0.04051 -0.514033,1.369839 -1.132314,2.191299 -0.96419,1.281043 -1.815194,1.722425 -4.303149,2.231875 -1.437306,0.294312 -1.842753,0.424869 -3.630844,1.16916 -1.310283,0.545404 -1.805512,0.698459 -1.41857,0.438421 z M 47.589421,80.605043 c -0.692256,-1.212615 -2.465136,-2.89088 -3.904085,-3.695734 -1.636634,-0.915425 -4.004564,-1.6311 -6.088735,-1.84024 -0.617465,-0.06196 -1.181013,-0.129829 -1.252328,-0.15082 -0.306355,-0.09017 0.143207,-2.135018 0.771676,-3.509989 0.54972,-1.202683 1.126963,-2.073711 3.258245,-4.91651 2.264963,-3.021109 2.896106,-3.996415 4.104532,-6.342737 2.195129,-4.262138 2.918912,-6.860385 3.270697,-11.741192 0.05007,-0.694648 0.09113,-1.385788 0.09126,-1.535867 1.25e-4,-0.150078 0.02275,-0.250343 0.05029,-0.222812 0.02753,0.02753 0.111547,0.760772 0.186701,1.629422 0.399748,4.620392 1.080225,7.322644 2.707209,10.750633 1.186917,2.500787 2.565625,4.674742 4.626101,7.294467 2.798901,3.55857 3.900569,5.571184 4.230964,7.729464 0.12744,0.832492 0.08889,0.920163 -0.405881,0.92297 -0.138867,7.88e-4 -0.749316,0.06647 -1.356552,0.145959 -2.629299,0.344185 -5.078385,1.231204 -6.857719,2.483754 -0.837603,0.589624 -2.05025,1.814526 -2.679342,2.706418 -0.250119,0.354605 -0.475811,0.646235 -0.501539,0.648068 -0.02573,0.0018 -0.138897,-0.158032 -0.251487,-0.355254 z M 47.38894,77.583626 c -1.171803,-2.920093 -1.377317,-3.320989 -2.380257,-4.643162 -0.457689,-0.60337 -0.894877,-1.216724 -0.971528,-1.363008 -0.298206,-0.569106 -0.18792,-0.115206 0.445737,1.834496 l 0.658728,2.026842 0.96114,1.014722 c 0.528627,0.558097 1.077932,1.214013 1.220677,1.45759 0.142746,0.243578 0.278019,0.424387 0.300607,0.4018 0.02259,-0.02259 -0.08321,-0.350764 -0.235104,-0.72928 z m 2.544373,-1.373528 0.806545,-0.872427 0.385997,-1.232568 c 0.212298,-0.677912 0.488775,-1.542265 0.614393,-1.920784 0.125618,-0.37852 0.209606,-0.707009 0.186639,-0.729975 -0.02297,-0.02297 -0.127915,0.09728 -0.23322,0.267218 -0.105305,0.169937 -0.489829,0.687875 -0.854499,1.150974 -0.364669,0.463099 -0.808631,1.136697 -0.986581,1.496885 -0.381073,0.771327 -1.637457,3.771219 -1.637457,3.909787 0,0.05261 0.205118,-0.195118 0.455819,-0.550512 0.250701,-0.355394 0.818765,-1.038763 1.262364,-1.518598 z m -1.604017,0.07721 0.400388,-1.730773 -0.01454,-2.525994 c -0.008,-1.389296 -0.06134,-3.283791 -0.118529,-4.209989 -0.09378,-1.518785 -0.190185,-3.463408 -0.473059,-9.542642 -0.05028,-1.080564 -0.09843,-2.68036 -0.107005,-3.555102 l -0.01559,-1.590441 -0.07373,1.029109 c -0.04055,0.566009 -0.121475,2.334205 -0.179824,3.929323 -0.05835,1.595118 -0.164564,4.015862 -0.236033,5.379431 -0.242047,4.618052 -0.345135,7.898695 -0.305739,9.729753 0.03449,1.6028 0.07772,2.0163 0.35603,3.405252 0.174228,0.869509 0.328134,1.543107 0.342014,1.496886 0.01388,-0.04622 0.20541,-0.862888 0.425623,-1.814813 z"
       id="path1"
       inkscape:export-filename="..\02-PROYECTO AQUINUS\Aquinus\aquinus\static\assets\images\Aquinus-con-texto.svg"
       inkscape:export-xdpi="96"
       inkscape:export-ydpi="96" /></g></svg>
